<svg id="Layer_1" data-name="Layer 1" xmlns="http://www.w3.org/2000/svg" xmlns:xlink="http://www.w3.org/1999/xlink" viewBox="0 0 1098.12 234.2"><defs><style>.cls-1{fill:url(#linear-gradient);}.cls-2{fill:url(#linear-gradient-2);}.cls-3{fill:#fff;}</style><linearGradient id="linear-gradient" x1="72.05" y1="164.6" x2="216.92" y2="64.17" gradientUnits="userSpaceOnUse"><stop offset="0.14" stop-color="#ffb23d"/><stop offset="0.25" stop-color="#fc9c48"/><stop offset="0.47" stop-color="#f56465"/><stop offset="0.74" stop-color="#ec178d"/><stop offset="1" stop-color="#d332ff"/></linearGradient><linearGradient id="linear-gradient-2" x1="75.85" y1="170.09" x2="220.73" y2="69.66" xlink:href="#linear-gradient"/></defs><path class="cls-1" d="M207.65,61.13h-14.8c-.14,0-.26,0-.39,0a5,5,0,0,0-4.33,2.4q-7.83,11-15.57,22c-2.42,3.43-4.79,6.89-7.23,10.3a1.66,1.66,0,0,1-2.91,0q-1.71-2.5-3.46-5-4.71-6.6-9.42-13.17c-3.56-5-6.77-9.51-12.6-11.91a49.26,49.26,0,0,0-17.41-3.53H86.93a5.41,5.41,0,0,0-5.47,5.41v45.13h0v38.46h0v4.11c0,2.25,1.1,6.72,4.52,7.22a107.09,107.09,0,0,0,14,.85c13.7,0,34.63-2.36,49.13-14.87a4.87,4.87,0,0,0,1.17-6.1,4.77,4.77,0,0,0-7.27-1.23c-15.9,13.85-42.95,13-52.34,12.26V77a4.74,4.74,0,0,1,4.72-4.75c5.86,0,12.92,0,18.77,0,4.89,0,9.72,0,14.53,1.43,10.07,3,15.74,13.44,21.63,21.49,3.41,4.67,6.62,9.48,10.07,14.12a4.44,4.44,0,0,0,7.44-.07c3.41-4.59,6.65-9.32,9.92-14,4.83-7,9.67-13.93,14.4-21,.79-1.17,1.56-2.36,2.27-3.58h10.9v85.6l0,.54a4.56,4.56,0,0,0,4.8,4.55,4.73,4.73,0,0,0,4.31-4.81V67.89A6.76,6.76,0,0,0,207.65,61.13Z"/><path class="cls-2" d="M189.08,95.83a6,6,0,0,0-2.72,2.1c-4.69,6.45-9.28,13-13.91,19.47-2.35,3.3-4.65,6.62-7,9.87-1.23,1.67-2.06,1.58-3.19-.11q-2-3-4.08-6c-5.42-7.86-10.74-15.79-16.3-23.55-4.76-6.63-11.07-16.9-20.26-17.28-6.33-.26-12,.12-18.71,0a2.83,2.83,0,0,0-2.9,2.84v50.57h0v10.76l4.6.17,1.78,0c6.28,0,25.29-.93,32-11.86a5,5,0,0,0-.93-6.46,4.76,4.76,0,0,0-7.1,1.32c-2.87,4.92-12.94,7-20.85,7.4V89.56c8.4,0,12.07-.18,14.85,2.16,3.34,2.81,6.64,7.22,9.05,10.79q6.6,9.78,13.33,19.45c3.19,4.59,6.44,9.13,9.59,13.75h0s7.21,11.62,15.26.08l3.64-5.28c2.93-4.26,7.8-11.24,10.74-15.49V156.8c0,.06,0,.11,0,.17a3.8,3.8,0,0,0,.06.59,2.59,2.59,0,0,0,.09.4,1.87,1.87,0,0,0,.07.22,4.5,4.5,0,0,0,3.93,3.13l.32,0h.18a3.05,3.05,0,0,0,.6-.06,4.59,4.59,0,0,0,2.45-1.21,3.59,3.59,0,0,0,.95-1.35,4.58,4.58,0,0,0,.44-1.92,1.81,1.81,0,0,0,0-.23c0-.34,0-.68,0-1V100.22C195,96.55,192.51,94.69,189.08,95.83Z"/><path class="cls-3" d="M247,86.52A7.45,7.45,0,0,1,254.5,79h19.15C295.14,79,310,93.72,310,112.89v.19c0,19.17-14.85,34.06-36.34,34.06H254.5a7.44,7.44,0,0,1-7.52-7.49Zm26.67,47.1c12.31,0,20.61-8.28,20.61-20.34v-.2c0-12.06-8.3-20.53-20.61-20.53H262v41.07Z"/><path class="cls-3" d="M347.3,159.31A6,6,0,1,1,351.6,148a33.9,33.9,0,0,0,14.46,3.12c10.16,0,14.95-4.87,14.95-14.21V134.4c-4.4,5.25-9.18,8.46-17.1,8.46-12.21,0-23.25-8.85-23.25-24.33v-.19c0-15.57,11.24-24.33,23.25-24.33,8.11,0,12.9,3.41,16.91,7.79v-.1a7.42,7.42,0,0,1,14.84.1v33.57c0,9.34-2.24,16.15-6.64,20.53-4.88,4.87-12.41,7-22.57,7A50.48,50.48,0,0,1,347.3,159.31ZM381,118.53v-.19c0-7.11-5.57-12.07-12.8-12.07s-12.7,5-12.7,12.07v.19c0,7.2,5.47,12.07,12.7,12.07S381,125.64,381,118.53Z"/><path class="cls-3" d="M434.05,132.35V107.63h-.49a6.33,6.33,0,1,1,0-12.65h.49V88.46a7.43,7.43,0,0,1,14.85,0V95h6.55a6.33,6.33,0,1,1,0,12.65H448.9v22.29c0,3.41,1.47,5.06,4.79,5.06.49,0,1.46-.1,1.76-.1A6.18,6.18,0,0,1,461.6,141a6,6,0,0,1-3.81,5.55,22,22,0,0,1-8.5,1.46C440.21,148,434.05,144.42,434.05,132.35Z"/><path class="cls-3" d="M467.07,132.16V132c0-11.38,8.7-16.64,21.1-16.64a37.45,37.45,0,0,1,12.8,2.14v-.87c0-6.13-3.81-9.54-11.23-9.54a34,34,0,0,0-10.26,1.46,6.38,6.38,0,0,1-2.15.39,6,6,0,0,1-6.16-6,6.14,6.14,0,0,1,4-5.75,45.8,45.8,0,0,1,16.71-2.72c8.11,0,14,2.14,17.68,5.84,3.91,3.89,5.67,9.63,5.67,16.64v23.74a7.13,7.13,0,0,1-7.23,7.11c-4.3,0-7.14-3-7.14-6.13v-.1c-3.61,4-8.59,6.62-15.82,6.62C475.18,148.12,467.07,142.47,467.07,132.16Zm34.1-3.41v-2.63a23.23,23.23,0,0,0-9.48-1.94c-6.35,0-10.26,2.53-10.26,7.2v.19c0,4,3.32,6.33,8.11,6.33C496.48,137.9,501.17,134.1,501.17,128.75Z"/><path class="cls-3" d="M525.29,82.92a7.43,7.43,0,0,1,14.85,0v57.41a7.43,7.43,0,0,1-14.85,0Z"/><path class="cls-3" d="M558.12,82.53a3.87,3.87,0,0,1,3.81-3.8h.88a4.24,4.24,0,0,1,3.61,2l24.43,36.6,24.42-36.6a4.15,4.15,0,0,1,3.62-2h.87a3.87,3.87,0,0,1,3.82,3.8v61.21a3.89,3.89,0,0,1-3.82,3.89,4,4,0,0,1-3.9-3.89V92.94L594,125a3.78,3.78,0,0,1-3.22,1.94,3.94,3.94,0,0,1-3.32-1.94L565.64,93v50.8a3.76,3.76,0,1,1-7.52,0Z"/><path class="cls-3" d="M630.21,122.23V122a26.33,26.33,0,0,1,52.66-.2v.2a26.17,26.17,0,0,1-26.47,26.27A25.82,25.82,0,0,1,630.21,122.23Zm44.94,0V122c0-10.81-8.1-19.66-18.75-19.66-10.95,0-18.47,8.85-18.47,19.46v.2c0,10.8,8,19.56,18.66,19.56C667.53,141.6,675.15,132.84,675.15,122.23Z"/><path class="cls-3" d="M709.35,147.92H709c-2.06,0-3.42-1.26-4.3-3.21l-19-42.62a8,8,0,0,1-.49-2,3.87,3.87,0,0,1,7.62-.78l16.32,39.32,16.61-39.51a3.59,3.59,0,0,1,3.52-2.72A3.7,3.7,0,0,1,733,100a5.27,5.27,0,0,1-.39,1.85l-19.05,42.82C712.67,146.66,711.4,147.92,709.35,147.92Z"/><path class="cls-3" d="M759.76,148.31c-13.88,0-25.21-10.61-25.21-26.18v-.19c0-14.5,10.26-26.18,24.23-26.18,15,0,23.45,12.17,23.45,25.5a3.5,3.5,0,0,1-3.52,3.5H742.17c1.07,10.9,8.79,17,17.78,17A20.7,20.7,0,0,0,774.51,136a3.32,3.32,0,0,1,2.15-.87,3.27,3.27,0,0,1,3.32,3.21,3.21,3.21,0,0,1-1.17,2.43A25.72,25.72,0,0,1,759.76,148.31Zm14.94-29.1c-.78-9.14-6.05-17.12-16.12-17.12-8.79,0-15.43,7.3-16.41,17.12Z"/><path class="cls-3" d="M790.14,100.14a3.78,3.78,0,0,1,3.71-3.79,3.74,3.74,0,0,1,3.81,3.79v5.16c3.32-5,7.81-9.54,16.31-9.54a17.16,17.16,0,0,1,16.22,10c3.62-5.54,9-10,17.78-10,11.63,0,18.76,7.79,18.76,20.24v27.84a3.76,3.76,0,1,1-7.52,0V117.75c0-9.73-4.89-15.18-13.09-15.18-7.62,0-13.88,5.65-13.88,15.57v25.7a3.76,3.76,0,1,1-7.52,0V117.56c0-9.44-5-15-13-15s-14.07,6.62-14.07,15.87v25.4a3.67,3.67,0,0,1-3.71,3.79,3.74,3.74,0,0,1-3.81-3.79Z"/><path class="cls-3" d="M900.23,148.31c-13.87,0-25.2-10.61-25.2-26.18v-.19c0-14.5,10.26-26.18,24.23-26.18,15,0,23.44,12.17,23.44,25.5a3.49,3.49,0,0,1-3.51,3.5H882.65c1.07,10.9,8.79,17,17.78,17A20.7,20.7,0,0,0,915,136a3.32,3.32,0,0,1,2.15-.87,3.27,3.27,0,0,1,3.32,3.21,3.21,3.21,0,0,1-1.17,2.43A25.73,25.73,0,0,1,900.23,148.31Zm14.95-29.1c-.78-9.14-6-17.12-16.12-17.12-8.79,0-15.43,7.3-16.41,17.12Z"/><path class="cls-3" d="M930.61,100.14a3.79,3.79,0,0,1,3.72-3.79,3.74,3.74,0,0,1,3.81,3.79v5.45c3.32-5.45,8.59-9.83,17.29-9.83,12.21,0,19.34,8.18,19.34,20.15v27.93a3.76,3.76,0,1,1-7.52,0V117.75c0-9.34-5.08-15.18-14-15.18-8.69,0-15.14,6.33-15.14,15.77v25.5a3.67,3.67,0,0,1-3.72,3.79,3.75,3.75,0,0,1-3.81-3.79Z"/><path class="cls-3" d="M988.06,133.81V103.45H984a3.42,3.42,0,0,1-3.32-3.31A3.35,3.35,0,0,1,984,96.83h4.11V85a3.73,3.73,0,0,1,3.71-3.8,3.88,3.88,0,0,1,3.81,3.8V96.83h13.09a3.44,3.44,0,0,1,3.42,3.31,3.37,3.37,0,0,1-3.42,3.31H995.58v29.39c0,6.13,3.42,8.37,8.5,8.37a21.26,21.26,0,0,0,4.59-.68,3.25,3.25,0,0,1,3.23,3.21,3.14,3.14,0,0,1-2.15,2.92,19.21,19.21,0,0,1-7.43,1.36C994.21,148,988.06,144,988.06,133.81Z"/><circle class="cls-3" cx="324.75" cy="82.6" r="7.63"/><circle class="cls-3" cx="413.15" cy="82.6" r="7.63"/><path class="cls-3" d="M317.12,101.8a7.43,7.43,0,0,1,14.85,0v38.53a7.43,7.43,0,0,1-14.85,0Z"/><path class="cls-3" d="M405.72,101.8a7.43,7.43,0,0,1,14.85,0v38.53a7.43,7.43,0,0,1-14.85,0Z"/></svg>